<?xml version="1.0" encoding="UTF-8" standalone="no"?>
<svg
   width="64"
   height="64"
   viewBox="0 0 64 64"
   version="1.1"
   id="svg79"
   sodipodi:docname="istio-logo.svg"
   inkscape:version="1.1 (c68e22c387, 2021-05-23)"
   xmlns:inkscape="http://www.inkscape.org/namespaces/inkscape"
   xmlns:sodipodi="http://sodipodi.sourceforge.net/DTD/sodipodi-0.dtd"
   xmlns="http://www.w3.org/2000/svg"
   xmlns:svg="http://www.w3.org/2000/svg">
  <defs
     id="defs83" />
  <sodipodi:namedview
     id="namedview81"
     pagecolor="#ffffff"
     bordercolor="#666666"
     borderopacity="1.0"
     inkscape:pageshadow="2"
     inkscape:pageopacity="0.0"
     inkscape:pagecheckerboard="0"
     showgrid="false"
     width="60px"
     inkscape:zoom="5.2578125"
     inkscape:cx="29.860327"
     inkscape:cy="9.5096582"
     inkscape:window-width="1920"
     inkscape:window-height="1163"
     inkscape:window-x="0"
     inkscape:window-y="0"
     inkscape:window-maximized="1"
     inkscape:current-layer="g248" />
  <g
     id="g248"
     transform="translate(11.900357,2.000037)">
    <path
       d="m 15.105,32.057 v 15.565 a 0.059,0.059 0 0 1 -0.049,0.059 L 0.069,50.25 A 0.06,0.06 0 0 1 0.005,50.167 l 14.987,-33.47 a 0.06,0.06 0 0 1 0.114,0.025 z"
       id="path73"
       style="fill:#ffffff;fill-opacity:1" />
    <path
       d="m 17.631,23.087 v 24.6 a 0.06,0.06 0 0 0 0.053,0.059 l 22.449,2.507 a 0.06,0.06 0 0 0 0.061,-0.084 L 17.745,0.032 a 0.06,0.06 0 0 0 -0.114,0.024 z"
       id="path75"
       style="fill:#ffffff;fill-opacity:1" />
    <path
       d="m 39.961,52.548 -24.833,7.45 a 0.062,0.062 0 0 1 -0.043,0 L 0.079,52.548 a 0.059,0.059 0 0 1 0.026,-0.113 h 39.839 a 0.06,0.06 0 0 1 0.017,0.113 z"
       id="path77"
       style="fill:#ffffff;fill-opacity:1" />
  </g>
</svg>
